<svg width="172" height="84" xmlns="http://www.w3.org/2000/svg" xmlns:xlink="http://www.w3.org/1999/xlink" overflow="hidden"><defs><clipPath id="clip0"><rect x="32" y="34" width="172" height="84"/></clipPath><clipPath id="clip1"><rect x="33" y="34" width="170" height="83"/></clipPath><clipPath id="clip2"><rect x="33" y="34" width="170" height="83"/></clipPath><clipPath id="clip3"><rect x="33" y="34" width="491" height="83"/></clipPath></defs><g clip-path="url(#clip0)" transform="translate(-32 -34)"><g clip-path="url(#clip1)"><g clip-path="url(#clip2)"><g clip-path="url(#clip3)"><text fill="#262626" font-family="Segoe UI,Segoe UI_MSFontService,sans-serif" font-style="italic" font-weight="400" font-size="17" transform="matrix(3.2699 0 0 3.27558 236.386 97)">FAST<tspan font-style="normal" font-weight="700" font-size="17" x="36.68" y="0"> FLEET</tspan></text><path d="M-193.663 1545.08C-196.042 1545.09-197.964 1547.02-197.956 1549.4-197.956 1551.77-196.034 1553.69-193.663 1553.69L-185.704 1553.69C-183.318 1553.69-181.385 1555.62-181.385 1558.01-181.392 1560.39-183.326 1562.31-185.704 1562.31L-211.863 1562.31C-214.249 1562.31-216.183 1564.24-216.183 1566.62-216.183 1566.62-216.183 1566.63-216.183 1566.63-216.178 1569.01-214.247 1570.94-211.863 1570.95L-171.483 1570.95C-169.11 1570.93-167.176 1572.85-167.164 1575.22-167.164 1575.23-167.164 1575.23-167.164 1575.24-167.169 1577.62-169.1 1579.55-171.483 1579.56L-199.791 1579.56C-202.174 1579.57-204.105 1581.5-204.11 1583.88-204.1 1586.26-202.172 1588.19-199.791 1588.2L-187.247 1588.2C-184.873 1588.19-182.939 1590.11-182.928 1592.48-182.928 1592.48-182.928 1592.49-182.928 1592.49-182.933 1594.88-184.864 1596.81-187.247 1596.81L-220.293 1596.81C-222.672 1596.82-224.594 1598.75-224.586 1601.13-224.586 1603.5-222.664 1605.43-220.293 1605.43L-195.285 1605.43C-192.906 1605.43-190.984 1607.37-190.992 1609.74-190.997 1610.82-191.408 1611.86-192.143 1612.65L-184.681 1612.65C-184.666 1601.62-175.73 1592.69-164.702 1592.67-153.676 1592.66-144.732 1601.59-144.722 1612.62-144.722 1612.63-144.722 1612.64-144.722 1612.65L-112.485 1612.65C-112.474 1601.62-103.535 1592.68-92.5054 1592.67-81.4803 1592.66-72.5355 1601.59-72.5263 1612.62-72.5263 1612.63-72.5263 1612.64-72.5263 1612.65L-63.6976 1612.65-60.4277 1596.76-58.7535 1588.85-84.4157 1559.96-106.883 1559.96-114.11 1596.81-122.203 1596.81-112.122 1545.06-193.663 1545.06ZM-93.421 1569.07-84.0985 1569.07-71.529 1584.73-96.511 1584.73ZM-164.705 1597.48C-173.113 1597.47-179.937 1604.28-179.946 1612.69-179.946 1612.69-179.946 1612.69-179.946 1612.69-179.944 1621.11-173.122 1627.93-164.705 1627.94-156.29 1627.93-149.471 1621.11-149.464 1612.69-149.473 1604.29-156.293 1597.48-164.702 1597.48ZM-92.5087 1597.48C-100.918 1597.47-107.741 1604.28-107.75 1612.69-107.742 1621.11-100.923 1627.93-92.5087 1627.94-84.0943 1627.93-77.2749 1621.11-77.2677 1612.69-77.2769 1604.29-84.0972 1597.48-92.5054 1597.48ZM-164.705 1609.08C-162.711 1609.08-161.095 1610.7-161.092 1612.69-161.082 1614.68-162.686 1616.3-164.672 1616.31-164.683 1616.31-164.694 1616.31-164.705 1616.31-166.691 1616.32-168.309 1614.72-168.318 1612.73-168.318 1612.72-168.318 1612.7-168.318 1612.69-168.329 1610.71-166.727 1609.09-164.741 1609.08-164.728 1609.08-164.715 1609.08-164.702 1609.08ZM-92.5087 1609.08C-90.5222 1609.07-88.9046 1610.67-88.8955 1612.66-88.8955 1612.67-88.8955 1612.68-88.8955 1612.69-88.8847 1614.68-90.4863 1616.3-92.4727 1616.31-92.4835 1616.31-92.4946 1616.31-92.5054 1616.31-94.4994 1616.31-96.1151 1614.69-96.1187 1612.7-96.1314 1610.71-94.5311 1609.09-92.5447 1609.08-92.5316 1609.08-92.5185 1609.08-92.5054 1609.08Z" fill="#262626" transform="matrix(1 0 0 1.00174 260.23 -1513.77)"/></g></g></g></g></svg>